# xmcd CD database file
#
# Track frame offsets:
#	150
#	6125
#	30625
#	59600
#	91850
#
# Disc length: 1275 seconds
#
# Revision: 0
# Processed by: cddbd v1.5.1PL0 Copyright (c) Steve Scherf et al.
# Submitted via: CDex 1.51
#
DISCID=3404f905
DTITLE=光栄 - 三國志満漢全席・八
DYEAR=1994
DGENRE=アニメ
TTITLE0=三國志満漢全席・八
TTITLE1=三國志満漢全席・八
TTITLE2=三國志満漢全席・八
TTITLE3=三國志満漢全席・八
TTITLE4=三國志満漢全席・八
EXTD=YEAR: 1994/3/25
EXTT0=
EXTT1=
EXTT2=
EXTT3=
EXTT4=
PLAYORDER=
